<?xml version="1.0" encoding="UTF-8"?>
<svg width="856px" height="659px" viewBox="0 0 856 659" version="1.1" xmlns="http://www.w3.org/2000/svg" xmlns:xlink="http://www.w3.org/1999/xlink">
    <title>华腾健康字体@1x</title>
    <defs>
        <path d="M93,241.005096 C93,254.810908 81.7146423,266 67.8018381,266 L67.8018381,266 L48.5972088,266 L48.5972088,233.866685 C55.2396891,233.866685 60.6264821,228.523344 60.6317581,221.934444 L60.6317581,221.934444 L60.676,158.93 L39.596,158.884 L39.5963579,241.005096 C39.5963579,254.672849 28.5407498,265.775956 14.8149383,265.996652 L14.3981959,266 L0,266 L0,233.866685 C3.98865377,233.866685 7.22811596,230.658587 7.22811596,226.702107 L7.22811596,226.702107 L7.38639587,0 L69.1208374,0 C82.305554,0 93,10.6029473 93,23.6865446 L93,23.6865446 Z M39.596,103.884 L39.596,131 L60.697,131 L60.716,103.93 L39.596,103.884 Z M39.5963579,32.002479 L39.596,76 L60.736,76 L60.768934,32.0548134 L39.5963579,32.002479 Z M205,1 L205,22 L215.037,22 L224.884864,3 L255,3 L246.988,22 L264,22 L264,50 L205,49.941 L205,59 L264,59 L264,87 L214.598,86.95 L217.189753,92.8849805 C217.737285,94.1378054 218.935445,94.9672487 220.28305,95.0434024 L220.486249,95.0491346 L264,95.0491346 L264,124 L204.884591,123.846175 C201.626614,123.835888 198.641414,122.059956 197.059172,119.21968 L196.914982,118.950307 L183.99,93.772 L170.901812,119.139959 C169.401445,122.042106 166.490415,123.890808 163.288792,123.995332 L162.987823,124 L100,123.845279 L100,94.8931603 L147.964835,94.8931603 C149.313952,94.8931603 150.539797,94.1189448 151.145669,92.9023203 L151.231838,92.71655 L153.739,86.889 L100,86.8358373 L100,59 L160.087,59 L160.114,49.895 L100,49.8358373 L100,22 L120.011,22 L112,3 L142.115136,3 L151.963,22 L160.199,22 L160.262299,1 L205,1 Z M261,131 L261,183.049 L267,183.049135 L267,212 L266.999,212 L267,226 C267,247.870476 249.447771,265.64141 227.661473,265.994641 L227,266 L207.810577,266 L211.574487,237.478215 L231.318024,237.478215 L231.383,211.965 L122.425776,211.856784 C110.710172,211.84103 101.192061,202.316774 101.00287,190.499768 L101,190.140983 L101.005239,174 L129.40356,174 L129.40356,183.049135 L225.049,183.049 L225.148,158.963 L100,158.835837 L100,131 L261,131 Z M200,224 L196.422952,252 L100,251.835837 L100,224 L200,224 Z" id="path-1"></path>
    </defs>
    <g id="控件" stroke="none" stroke-width="1" fill="none" fill-rule="evenodd">
        <g id="icon/app/1024*1024-2备份-12" transform="translate(-84.000000, -182.000000)">
            <g id="编组" transform="translate(-209.911190, -1090.000000)">
                <g id="华腾健康字体" transform="translate(294.433863, 1272.000000)">
                    <g id="编组-34" transform="translate(126.477327, 0.000000)">
                        <polygon id="Fill-1" fill="#F4F6FF" points="68 142 23 142 23.407855 48.8284484 68 42"></polygon>
                        <polygon id="Fill-2" fill="#F4F6FF" points="48.0026057 0 26.6669562 28.735345 0 28.735345 0 67 29.8198795 67 67.5559416 44.8930536 96 0"></polygon>
                        <path d="M165.915653,102.076878 L165.915653,1 L121.235795,1 L121,129.970946 C120.984314,137.163526 126.836495,143 134.061345,143 L139.148604,143 L165.915653,143 L266,143 L266,107.412635 L171.275349,107.412635 C168.315204,107.412635 165.915653,105.023802 165.915653,102.076878" id="Fill-3" fill="#F4F6FF"></path>
                        <polygon id="Clip-6" points="0 172 266 172 266 208 0 208"></polygon>
                        <polyline id="Fill-5" fill="#F4F6FF" points="266 208 0 207.794195 0 172 266 172"></polyline>
                        <polyline id="Fill-7" fill="#F4F6FF" points="106 266.570976 106.262299 153 151 153 151 267"></polyline>
                        <path d="M224.917779,16 L224.823529,40.9443395 C224.807821,44.2990868 222.106008,47.0155881 218.775866,47.0155881 L91,47.0155881 L91,82.7942844 L221.084974,82.9367029 L221.084974,83 L244.207468,83 C256.239962,83 266,73.1731223 266,61.0464494 L266,16 L224.917779,16 Z" id="Fill-9" fill="#F4F6FF"></path>
                    </g>
                    <g id="位图" transform="translate(461.477327, 0.000000)">
                        <mask id="mask-2" fill="white">
                            <use xlink:href="#path-1"></use>
                        </mask>
                        <use id="蒙版" fill="#F4F6FF" xlink:href="#path-1"></use>
                    </g>
                    <g id="编组-37" transform="translate(124.477327, 391.000000)" fill="#F4F6FF">
                        <polygon id="Fill-11" points="58 268 22 268 22.3218997 67.1854864 58 52"></polygon>
                        <polygon id="Fill-13" points="0 74 0 36.0952381 25.3202769 36.0952381 43.4039169 0 85 0 57.8718892 54.1481481 23.098921 74"></polygon>
                        <path d="M138.89311,227.973592 L100.75774,139 L66,139 L112.19052,249.638371 C116.074534,258.948767 125.137231,265 135.181372,265 L268,265 L268,235.672776 L150.534708,235.672776 C145.470874,235.672776 140.897762,232.644535 138.89311,227.973592" id="Fill-15"></path>
                        <path d="M117.787036,13 L86.7372282,13 L86.7372282,45.2114099 L101.103789,45.2114099 L70.0332503,116.564404 C67.4574275,122.476824 71.7383725,129.123706 78.1235108,129.123706 L98.4554082,129.123706 L62,268 L99.6889009,268 L132.065491,139.05993 C133.734334,132.460263 134.584304,125.671735 134.584304,118.862221 L134.584304,118.862221 C134.584304,108.716152 126.457764,100.490176 116.434341,100.490176 L116.434341,100.490176 L136.989096,50.1427984 C138.315878,46.8901804 139,43.4014854 139,39.8760672 L139,34.4725245 C139,22.6162075 129.505216,13 117.787036,13" id="Fill-17"></path>
                        <path d="M212.914681,97.2170666 L225.810732,97.2170666 L225.810732,87.4528842 L212.914681,87.4528842 L212.914681,97.2170666 Z M212.914681,58.1655808 L225.810732,58.1655808 L225.810732,43.9021135 L212.914681,43.9021135 L212.914681,58.1655808 Z M258.96899,128.948038 L258.96899,91.1131416 L267,91.1131416 L267,53.052757 L258.96899,53.052757 L258.96899,35.4646433 C258.96899,23.608136 249.302228,13.9960273 237.371799,13.9960273 L212.914681,13.9960273 L212.914681,0 L177.302797,0 L177.302797,13.9960273 L147.827617,13.9960273 L147.827617,43.9021135 L177.302797,43.9021135 L177.302797,58.1603369 L138.530219,58.1603369 L138.530219,87.4528842 L177.302797,87.4528842 L177.302797,97.2170666 L147.827617,97.2170666 L147.827617,128.948038 L177.302797,128.948038 L177.302797,140.505641 L141.685635,140.505641 L141.685635,172.850151 L177.302797,172.850151 L177.302797,185.010806 L137,185.010806 L137,216.133482 L177.302797,216.133482 L177.302797,231 L212.914681,231 L212.914681,216.133482 L263.886796,216.133482 L263.886796,185.010806 L212.914681,185.010806 L212.914681,172.850151 L255.285911,172.850151 L255.285911,140.505641 L212.914681,140.505641 L212.914681,128.948038 L258.96899,128.948038 Z" id="Fill-19"></path>
                    </g>
                    <g id="编组-38" transform="translate(460.477327, 391.000000)" fill="#F4F6FF">
                        <polygon id="Fill-21" points="167 17 155.954816 0 120 0 128.990021 17"></polygon>
                        <path d="M12.078693,29.4660615 L12.078693,223.756732 C12.078693,230.406858 6.67063705,235.798285 0,235.798285 L0,268 L11.0318028,268 C32.4430747,268 49.7930439,250.703379 49.7930439,229.357943 L49.7930439,37.8573878 L265,37.8573878 L265,8 L33.6109622,8 C21.7216564,8 12.078693,17.6080686 12.078693,29.4660615" id="Fill-22"></path>
                        <path d="M176.940108,90.3131964 L215.633011,90.3131964 L215.633011,80.3745945 L176.940108,80.3745945 L176.940108,90.3131964 Z M176.940108,126.938202 L215.633011,126.938202 L215.633011,117.266936 L176.940108,117.266936 L176.940108,126.938202 Z M252.242653,90.3131964 L252.242653,73.0936251 C252.242653,61.2417376 242.599676,51.6333741 230.705094,51.6333741 L176.940108,51.6333741 L176.940108,43 L139.778087,43 L139.778087,51.6333741 L68.6473266,51.6333741 L68.6473266,80.3745945 L139.778087,80.3745945 L139.778087,90.3131964 L57,90.3131964 L57,117.266936 L139.778087,117.266936 L139.778087,126.938202 L65.8749052,126.938202 L65.8749052,155.679423 L139.778087,155.679423 L139.778087,235.602346 L127.410036,235.602346 L127.410036,266 L151.81471,266 C165.6926,266 176.940108,254.792864 176.940108,240.97003 L176.940108,233.814865 L176.940108,155.679423 L252.242653,155.679423 L252.242653,117.266936 L265,117.266936 L265,90.3131964 L252.242653,90.3131964 Z" id="Fill-23"></path>
                        <path d="M242.557311,197.271897 L218.194857,202.60911 L269,243.866861 L242.409851,267 L185.701053,210.283636 C184.595105,208.765426 184,206.944617 184,205.071636 L184,188.162637 C184,181.787198 188.486989,176.267382 194.780359,174.900472 L249.740706,163 L242.557311,197.271897 Z" id="Fill-24"></path>
                        <path d="M74.792959,197.271897 L99.0096846,202.60911 L53,243.866861 L83.9174192,267 L131.309122,210.283636 C132.408454,208.765426 133,206.944617 133,205.071636 L133,188.162637 C133,181.787198 128.539851,176.267382 122.284125,174.900472 L67.6525324,163 L74.792959,197.271897 Z" id="Fill-25"></path>
                    </g>
                    <g id="矩形" opacity="0.5" transform="translate(0.000000, 307.000000)" fill="#F4F6FF">
                        <path d="M191.824546,11.5221455 C191.824546,11.3714093 191.824546,11.2206731 191.824546,11.042029 L181.684128,11.042029 C181.684128,11.2423143 181.684128,11.4192037 181.684128,11.5960931 C181.684128,16.7395895 181.686432,21.8830859 181.681022,27.0264988 C181.680321,27.6098913 181.660984,28.1947878 181.606981,28.7761749 C181.474328,30.206414 180.863064,30.7790277 179.156012,30.8548136 C177.275029,30.9382031 175.386431,30.9021067 173.501239,30.9163113 C173.472685,30.916562 173.44383,30.8940017 173.351053,30.855315 L173.351053,11.0477108 L163.285478,11.0477108 L163.285478,30.902608 L154.956611,30.902608 L154.956611,11 L144.82511,11 L144.82511,38.9729266 C145.126985,38.9729266 145.357023,38.9727595 145.586961,38.9729266 C158.857743,38.9832041 172.128524,38.9944007 185.399306,39 C185.914788,39 186.437183,38.9803631 186.94475,38.9107605 C189.241024,38.5960026 190.909302,37.6171365 191.554331,35.6856411 C191.752108,35.0933916 191.81112,34.4525121 191.812523,33.8337751 C191.829756,26.3965652 191.824145,18.9593554 191.824546,11.5221455" id="Fill-1" opacity="0.740559896"></path>
                        <path d="M326.829635,30.892828 C326.654739,30.9026905 326.508639,30.9180694 326.36254,30.9180694 C317.958546,30.9192395 309.554553,30.9163142 301.150559,30.9260095 C300.640168,30.9265946 300.295913,30.7547529 300.242044,30.3722047 C300.154143,29.7468548 300.087688,29.1036188 300.168944,28.4820301 C300.25312,27.8391283 300.539076,27.7135067 301.327772,27.7135067 C308.05439,27.7134231 314.781008,27.7134231 321.507626,27.7134231 C321.704775,27.7134231 321.901924,27.7134231 322.139851,27.7134231 C322.120016,27.5430024 322.113471,27.4203061 322.090413,27.2997829 C321.746762,25.5012126 321.388008,23.7044811 321.066307,21.9032362 C321.000356,21.533643 320.828077,21.4428745 320.395921,21.4436267 C313.652588,21.4549101 306.909256,21.4432088 300.166024,21.4604264 C299.097011,21.463101 298.01672,21.5198522 296.961803,21.6576765 C293.723348,22.0806778 291.430362,23.4724614 290.667644,26.224101 C289.955472,28.7932841 289.936341,31.386622 290.738529,33.946277 C291.465603,36.2665572 293.189597,37.8946231 296.019759,38.5450471 C297.200839,38.8165168 298.460255,38.9723946 299.685033,38.9761557 C310.269544,39.0090865 320.854256,39.0010627 331.438868,38.9922032 C334.866215,38.9893614 337.133124,37.0798797 337.13403,34.2361344 C337.135842,28.3407789 337.135035,22.4454234 337.133426,16.5500679 C337.133325,16.2164978 337.133124,15.882092 337.106642,15.5495249 C336.907782,13.0500479 335.486056,11.6742282 332.521776,11.1889594 C331.689382,11.0527231 330.823559,11.0044971 329.972939,11.003912 C316.922559,10.9958047 303.872078,11.0021568 290.821597,11.0063358 C290.647506,11.0064194 290.473516,11.0224669 290.246462,11.0336667 C290.875868,13.324025 291.48866,15.5542054 292.109911,17.8147255 C292.342602,17.8147255 292.541564,17.8143076 292.740424,17.8148091 C303.039885,17.8418056 313.339345,17.8680499 323.638705,17.8983061 C324.107311,17.8997269 324.578233,17.9195355 325.043617,17.9628303 C326.231141,18.0733238 326.769121,18.5486465 326.845544,19.5354823 C326.870213,19.8543421 326.884813,20.1744557 326.884209,20.4939843 C326.876959,23.8170641 326.865984,27.140144 326.854505,30.4632239 C326.854103,30.5986244 326.839201,30.7339414 326.829635,30.892828" id="Fill-3" opacity="0.740559896"></path>
                        <path d="M671.737084,17.9544924 L680.021087,17.9544924 L680.021087,38.9979893 L690.086128,38.9979893 L690.086128,17.9379045 C691.959113,17.9379045 693.775708,17.9329616 695.592103,17.941842 C695.973811,17.9436851 696.359025,17.9762746 696.735725,18.0289707 C697.789605,18.1763354 698.250139,18.5798081 698.348996,19.4721228 C698.408992,20.0122367 698.429625,20.5571259 698.429725,21.0998369 C698.431428,26.883504 698.425418,32.6671711 698.421512,38.4507544 C698.421412,38.6272737 698.421512,38.803793 698.421512,38.9908682 L708.596323,38.9908682 C708.596323,38.8194594 708.596323,38.6818129 708.596323,38.5441663 C708.569585,32.0916193 708.545647,25.6390722 708.513996,19.1865251 C708.507987,17.9464498 708.510992,16.7048665 708.44108,15.466718 C708.311173,13.1680296 706.907536,11.7368576 704.228066,11.2626767 C703.129816,11.0683128 701.979983,11.0069038 700.853488,11.0058147 C687.955432,10.9933319 675.057376,11.0041392 662.15932,11.0087469 C661.980235,11.0088307 661.801149,11.0087469 661.596323,11.0087469 L661.596323,39 L671.737084,39 L671.737084,17.9544924 Z" id="Fill-5" opacity="0.740559896"></path>
                        <path d="M845.819772,22.022558 L822.2611,22.022558 C822.763158,23.8859938 823.260612,25.7326472 823.76287,27.5970015 C823.977322,27.5970015 824.14224,27.5966675 824.307257,27.597085 C832.143236,27.6153703 839.979114,27.6336557 847.814993,27.652108 C848.631874,27.6540284 849.451958,27.6967777 850.264837,27.6513566 C852.785731,27.5104174 854.748128,26.6323866 854.652861,23.8316388 C854.563997,21.2221774 854.622539,18.6092927 854.60953,15.9979109 C854.607829,15.6513242 854.592918,15.3020657 854.53908,14.9589022 C854.302011,13.4461444 853.384758,12.3203847 851.741288,11.6256249 C850.615286,11.1497048 849.403423,11.0015016 848.156436,11.0014181 C840.337069,11.0011676 832.517802,10.9957405 824.698536,11.0079307 C823.684514,11.0094336 822.662486,11.050513 821.658171,11.1613105 C816.863458,11.6902498 813.085468,13.6089591 810.563573,17.0686476 C807.967825,20.6298656 807.374703,24.4998472 808.415443,28.5442494 C809.207908,31.6234523 810.962257,34.2568767 813.932871,36.2591642 C816.846846,38.2233782 820.250869,38.9780038 823.942497,38.9801746 C834.079214,38.9860193 844.21593,38.9932833 854.352747,39 C854.533876,39 854.715005,39 854.929558,39 C854.900537,38.8563519 854.884826,38.7493117 854.857006,38.6444422 C854.303212,36.5579085 853.734807,34.473963 853.20533,32.3830875 C853.109762,32.0056077 852.93784,31.9089208 852.486318,31.9095053 C843.266655,31.921612 834.046891,31.914348 824.827127,31.9213615 C822.418312,31.9231984 820.535972,31.0960994 819.33942,29.3763581 C817.363013,26.5358667 817.216409,23.5694653 818.921423,20.6092424 C819.989683,18.7544066 821.852209,17.8390536 824.35339,17.8418924 C831.322451,17.8498244 838.291413,17.8446478 845.260474,17.8445643 L845.819772,17.8445643 L845.819772,22.022558 Z" id="Fill-7" opacity="0.740559896"></path>
                        <path d="M457.153594,31.057341 L445.307459,31.057341 L445.307459,18.1435446 L457.144479,18.1435446 L457.144479,11.2734272 L445.268323,11.2734272 L445.268323,0 L435.153594,0 C435.153594,0.205346417 435.153594,0.393628953 435.153594,0.581994324 C435.173517,11.7151001 435.193134,22.8482059 435.213446,33.9813116 C435.21404,34.2705693 435.202151,34.5611522 435.228704,34.8490017 C435.378116,36.4683309 436.176696,37.7573995 437.968944,38.5211324 C438.808939,38.8790597 439.713534,39.0005778 440.651321,39 C445.982289,38.9965189 451.313258,38.9980099 456.644226,38.9978442 C456.804636,38.9978442 456.965046,38.9978442 457.153594,38.9978442 L457.153594,31.057341 Z" id="Fill-9" opacity="0.740559896"></path>
                        <polygon id="Fill-11" opacity="0.740559896" points="554.74093 39 564.74093 39 564.74093 11 554.74093 11"></polygon>
                        <path d="M44.7873167,11.2465425 L44.7873167,0 L34.9092319,0 L34.9092319,11.2778754 L14.9488942,11.2778754 L14.9488942,18.101 L15.5681358,18.101 C21.8150356,18.101 28.0619353,18.1009171 34.3088351,18.1010829 C34.9597125,18.1010829 34.9599078,18.1014974 34.9591266,18.6631696 C34.9490696,25.26887 34.9390125,31.8745704 34.9289555,38.4803537 C34.9286625,38.6532652 34.9289555,38.8261767 34.9289555,39 L44.8466826,39 L44.8466826,18.12164 L44.7873167,11.2465425 Z M0,39 L10.9625224,39 L10.9625224,0 L0,0 L0,39 Z" id="形状结合" opacity="0.740559896"></path>
                    </g>
                </g>
            </g>
        </g>
    </g>
</svg>